<svg width="28" height="28" viewBox="0 0 28 28" fill="none" xmlns="http://www.w3.org/2000/svg">
<g clip-path="url(#clip0_2440_11228)">
<path fill-rule="evenodd" clip-rule="evenodd" d="M17.4242 7.96721C16.303 7.21803 14.9848 6.81814 13.6363 6.81814V0C16.3333 0 18.9697 0.799755 21.2122 2.29813C23.4547 3.7965 25.2025 5.9262 26.2346 8.41789C27.2666 10.9096 27.5367 13.6514 27.0106 16.2966C26.4844 18.9418 25.1857 21.3715 23.2786 23.2786C21.3715 25.1857 18.9418 26.4844 16.2966 27.0106C13.6514 27.5367 10.9096 27.2666 8.41789 26.2346C5.9262 25.2025 3.7965 23.4547 2.29813 21.2122C0.799755 18.9697 0 16.3333 0 13.6363H6.81814C6.81814 14.9848 7.21803 16.303 7.96721 17.4242C8.71638 18.5455 9.78124 19.4194 11.0271 19.9354C12.2729 20.4515 13.6439 20.5865 14.9664 20.3234C16.289 20.0603 17.5039 19.411 18.4575 18.4575C19.411 17.5039 20.0603 16.289 20.3234 14.9664C20.5865 13.6439 20.4515 12.2729 19.9354 11.0271C19.4194 9.78124 18.5455 8.71638 17.4242 7.96721Z" fill="#D9FD08"/>
<path fill-rule="evenodd" clip-rule="evenodd" d="M6.81814 2.95311e-06C6.81814 0.895375 6.64179 1.78198 6.29914 2.60919C5.9565 3.43641 5.45428 4.18803 4.82115 4.82116C4.18803 5.45429 3.43641 5.9565 2.60919 6.29915C1.78197 6.64179 0.895369 6.81815 2.98028e-07 6.81815L0 13.6363C1.79074 13.6363 3.56395 13.2836 5.21839 12.5983C6.87282 11.913 8.37609 10.9086 9.64228 9.64229C10.9085 8.37609 11.913 6.87283 12.5983 5.21838C13.2836 3.56395 13.6363 1.79074 13.6363 0L6.81814 2.95311e-06Z" fill="#D9FD08"/>
</g>
<defs>
<clipPath id="clip0_2440_11228">
<rect width="27.2726" height="27.2726" fill="white"/>
</clipPath>
</defs>
</svg>
