<svg width="70" height="20" viewBox="0 0 70 20" fill="none" xmlns="http://www.w3.org/2000/svg">
<path d="M65.1494 0L61.1215 7.42952L63.1845 11.184L69.2333 0H65.1494Z" fill="white" fill-opacity="0.9"/>
<path d="M41.1808 0L33.1669 19.9998H37.4312L37.6225 19.4886L39.0336 15.7137L40.3466 12.1995L42.936 5.27212L43.208 4.54484L43.4525 5.20184L44.0888 6.91003L46.0584 12.1995H42.111L40.798 15.7137H47.367L48.963 19.9998H53.3297L45.2903 0H41.1808Z" fill="white" fill-opacity="0.9"/>
<path d="M23.988 0H19.8271V20H31.4354L32.9464 16.2285H23.988V0Z" fill="white" fill-opacity="0.9"/>
<path d="M60.3781 8.79953L57.7429 4.005L55.5426 0H51.1254L58.0853 12.8708V19.9998H59.3233H62.2461L62.1929 12.1017L60.3781 8.79953Z" fill="white" fill-opacity="0.9"/>
<path d="M17.7477 0H13.2272L9.12754 6.19877L5.05974 0H0.333679L13.3813 20H18.1844L11.4412 9.72436L17.7477 0Z" fill="#D9FD08"/>
<path d="M0 19.9992H4.77735L8.34466 14.4987L6.00739 10.916L0 19.9992Z" fill="#D9FD08"/>
</svg>
