<svg width="37" height="36" viewBox="0 0 37 36" fill="none" xmlns="http://www.w3.org/2000/svg">
<g clip-path="url(#clip0_2840_16229)">
<path fill-rule="evenodd" clip-rule="evenodd" d="M23.639 10.5168C22.1179 9.52785 20.3295 9 18.5 9V0C22.1589 0 25.7357 1.05568 28.778 3.03355C31.8204 5.01141 34.1915 7.82263 35.5918 11.1117C36.992 14.4007 37.3583 18.02 36.6445 21.5116C35.9307 25.0033 34.1688 28.2106 31.5814 30.7279C28.9942 33.2453 25.6978 34.9596 22.1092 35.6541C18.5205 36.3487 14.8007 35.9922 11.4203 34.6298C8.03992 33.2674 5.15061 30.9604 3.11781 28.0003C1.08501 25.0402 0 21.56 0 18H9.25C9.25 19.78 9.79251 21.5201 10.8089 23.0001C11.8253 24.4802 13.27 25.6337 14.9602 26.3149C16.6504 26.9961 18.5103 27.1743 20.3046 26.827C22.0989 26.4798 23.7471 25.6226 25.0408 24.364C26.3344 23.1053 27.2154 21.5016 27.5722 19.7558C27.9292 18.01 27.746 16.2004 27.0459 14.5559C26.3458 12.9113 25.1602 11.5057 23.639 10.5168Z" fill="#E8D710"/>
<path fill-rule="evenodd" clip-rule="evenodd" d="M9.25 3.89813e-06C9.25 1.1819 9.01074 2.35223 8.54589 3.44415C8.08103 4.53608 7.39968 5.52824 6.54073 6.36397C5.6818 7.1997 4.66209 7.86263 3.53982 8.31492C2.41756 8.76721 1.21472 9 4.04327e-07 9L0 18C2.42945 18 4.83512 17.5344 7.07965 16.6298C9.32418 15.7253 11.3636 14.3994 13.0814 12.7279C14.7993 11.0565 16.1621 9.07218 17.0918 6.88831C18.0215 4.70444 18.5 2.36379 18.5 0L9.25 3.89813e-06Z" fill="#E8D710"/>
</g>
<defs>
<clipPath id="clip0_2840_16229">
<rect width="37" height="36" fill="white"/>
</clipPath>
</defs>
</svg>
