<svg width="102" height="30" viewBox="0 0 102 30" fill="none" xmlns="http://www.w3.org/2000/svg">
<path d="M95.9833 0L90.0488 10.9461L93.0882 16.4776L102 0H95.9833Z" fill="white" fill-opacity="0.9"/>
<path d="M60.6756 0L48.8687 29.4662H55.1513L55.4332 28.7129L57.5122 23.1514L59.4467 17.9739L63.2617 7.76754L63.6625 6.69602L64.0226 7.664L64.9602 10.1807L67.862 17.9739H62.0462L60.1117 23.1514H69.7899L72.1413 29.4662H78.5749L66.7303 0H60.6756Z" fill="white" fill-opacity="0.9"/>
<path d="M35.3427 0H29.2124V29.4665H46.3152L48.5414 23.9098H35.3427V0Z" fill="white" fill-opacity="0.9"/>
<path d="M88.9578 12.9645L85.0753 5.90066L81.8336 0H75.3257L85.5798 18.9628V29.4662H87.4038H91.71L91.6316 17.8298L88.9578 12.9645Z" fill="white" fill-opacity="0.9"/>
<path d="M26.1457 0H19.4857L13.4455 9.13279L7.45228 0H0.489258L19.7127 29.4665H26.7891L16.8542 14.3271L26.1457 0Z" fill="#E8D710"/>
<path d="M0 29.4685H7.03858L12.2944 21.3643L8.85083 16.0859L0 29.4685Z" fill="#E8D710"/>
</svg>
