<svg width="50" height="50" viewBox="0 0 50 50" fill="none" xmlns="http://www.w3.org/2000/svg">
<rect x="0.357143" y="0.357143" width="49.2857" height="49.2857" rx="24.6429" stroke="#3A3A3A" stroke-opacity="0.5" stroke-width="0.714286"/>
<path d="M32.1428 25.0001C32.1428 27.1218 31.3 29.1566 29.7997 30.6569C28.2994 32.1572 26.2646 33.0001 24.1428 33.0001C22.0211 33.0001 19.9863 32.1572 18.486 30.6569C16.9857 29.1566 16.1428 27.1218 16.1428 25.0001C16.1428 22.8783 16.9857 20.8435 18.486 19.3432C19.9863 17.8429 22.0211 17.0001 24.1428 17.0001C24.9028 17.0001 25.6428 17.1101 26.3428 17.3101L27.9128 15.7401C26.7173 15.2471 25.436 14.9956 24.1428 15.0001C22.8296 15.0001 21.5292 15.2587 20.316 15.7613C19.1027 16.2638 18.0003 17.0004 17.0718 17.929C15.1964 19.8044 14.1428 22.3479 14.1428 25.0001C14.1428 27.6522 15.1964 30.1958 17.0718 32.0711C18.0003 32.9997 19.1027 33.7363 20.316 34.2389C21.5292 34.7414 22.8296 35.0001 24.1428 35.0001C26.795 35.0001 29.3385 33.9465 31.2139 32.0711C33.0893 30.1958 34.1428 27.6522 34.1428 25.0001M20.0528 23.0801L18.6428 24.5001L23.1428 29.0001L33.1428 19.0001L31.7328 17.5801L23.1428 26.1701L20.0528 23.0801Z" fill="#8DED18"/>
</svg>
