<svg width="21" height="20" viewBox="0 0 21 20" fill="none" xmlns="http://www.w3.org/2000/svg">
<g clip-path="url(#clip0_2440_11241)">
<path fill-rule="evenodd" clip-rule="evenodd" d="M13.0671 6.29635C12.2719 5.76499 11.3369 5.48137 10.3805 5.48137V0.645508C12.2933 0.645508 14.1633 1.21274 15.7538 2.27549C17.3443 3.33823 18.5839 4.84874 19.316 6.616C20.048 8.38327 20.2395 10.328 19.8663 12.2041C19.4931 14.0802 18.572 15.8036 17.2194 17.1561C15.8668 18.5088 14.1434 19.4299 12.2673 19.8031C10.3912 20.1763 8.4465 19.9847 6.67924 19.2527C4.91198 18.5207 3.40146 17.2811 2.33872 15.6905C1.27598 14.1 0.70874 12.2301 0.70874 10.3172H5.5446C5.5446 11.2737 5.82822 12.2086 6.35959 13.0039C6.89095 13.7991 7.64621 14.419 8.52987 14.785C9.41348 15.151 10.3858 15.2468 11.3239 15.0601C12.2619 14.8736 13.1236 14.413 13.7999 13.7367C14.4762 13.0604 14.9368 12.1987 15.1234 11.2607C15.31 10.3226 15.2142 9.35025 14.8482 8.46664C14.4822 7.58298 13.8624 6.82772 13.0671 6.29635Z" fill="white"/>
<path fill-rule="evenodd" clip-rule="evenodd" d="M5.5446 0.64551C5.5446 1.28056 5.41952 1.9094 5.17649 2.49611C4.93347 3.08283 4.57726 3.61593 4.12821 4.06498C3.67916 4.51403 3.14606 4.87024 2.55934 5.11326C1.97263 5.35628 1.34379 5.48137 0.70874 5.48137L0.70874 10.3172C1.97885 10.3172 3.23652 10.0671 4.40995 9.58102C5.58338 9.09496 6.64959 8.38255 7.54766 7.48443C8.44577 6.58636 9.15819 5.52015 9.64424 4.34672C10.1303 3.17329 10.3805 1.91561 10.3805 0.645508L5.5446 0.64551Z" fill="white"/>
</g>
<defs>
<clipPath id="clip0_2440_11241">
<rect width="19.3434" height="19.3434" fill="white" transform="translate(0.70874 0.645508)"/>
</clipPath>
</defs>
</svg>
