<svg width="20" height="20" viewBox="0 0 20 20" fill="none" xmlns="http://www.w3.org/2000/svg">
<path d="M16.6667 10.0003C16.6667 8.23222 15.9644 6.53652 14.7141 5.28628C13.4639 4.03604 11.7682 3.33366 10.0001 3.33366C8.23197 3.33366 6.53628 4.03604 5.28604 5.28628C4.03579 6.53652 3.33341 8.23222 3.33341 10.0003C3.33341 11.7684 4.03579 13.4641 5.28604 14.7144C6.53628 15.9646 8.23197 16.667 10.0001 16.667C11.7682 16.667 13.4639 15.9646 14.7141 14.7144C15.9644 13.4641 16.6667 11.7684 16.6667 10.0003ZM18.3334 10.0003C18.3334 14.6028 14.6026 18.3337 10.0001 18.3337C5.39758 18.3337 1.66675 14.6028 1.66675 10.0003C1.66675 5.39783 5.39758 1.66699 10.0001 1.66699C14.6026 1.66699 18.3334 5.39783 18.3334 10.0003ZM13.9217 8.80366C13.7767 9.68116 13.3176 10.1095 12.6959 10.2612C13.5226 10.7237 13.9209 11.4262 13.4951 12.6587C12.9659 14.2037 11.7809 14.3437 10.2117 14.0445L9.80675 15.6753L8.89508 15.4495L9.29925 13.8187C9.05091 13.752 8.79758 13.7037 8.55008 13.6328L8.14591 15.2637L7.23591 15.0387L7.64008 13.407L5.82675 12.9137L6.27675 11.7603C6.27675 11.7603 6.96175 11.9487 6.95175 11.937C7.20508 11.9987 7.32925 11.8203 7.38008 11.697L8.02675 9.08283L8.49841 7.22449C8.51841 7.02366 8.45508 6.76033 8.08425 6.66033C8.10925 6.64616 7.41758 6.49533 7.41758 6.49533L7.68675 5.40199L9.55591 5.86533L9.95175 4.26783L10.8934 4.50116L10.4976 6.09866C10.7401 6.15199 10.9759 6.21533 11.2192 6.27783L11.6142 4.68033L12.5309 4.90699L12.1242 6.54616C13.2801 6.97116 14.1126 7.59866 13.9217 8.80366ZM9.67175 9.12866C10.2192 9.29366 11.8426 9.78116 12.1159 8.69533C12.3709 7.66199 10.9642 7.34699 10.3109 7.20033C10.2331 7.18366 10.1679 7.16838 10.1151 7.15449L9.62591 9.11532L9.67175 9.12866ZM8.82675 12.312L8.90591 12.3362C9.58091 12.5362 11.4942 13.1053 11.7542 12.0278C12.0209 10.9895 10.3009 10.5853 9.53008 10.4037C9.44508 10.3842 9.37341 10.367 9.31508 10.352L8.82675 12.312Z" fill="#AFAFAF"/>
</svg>
