<svg width="20" height="20" viewBox="0 0 20 20" fill="none" xmlns="http://www.w3.org/2000/svg">
<path d="M1.66675 16.6663L6.66675 9.99967L1.66675 3.33301H12.5001C12.764 3.33301 13.014 3.39217 13.2501 3.51051C13.4862 3.62884 13.6806 3.7919 13.8334 3.99967L18.3334 9.99967L18.2292 10.1455C17.8542 9.89551 17.4479 9.69079 17.0101 9.53134C16.5723 9.3719 16.1176 9.26412 15.6459 9.20801L12.5001 4.99967H5.00008L8.75008 9.99967L5.00008 14.9997H9.16675C9.16675 15.2913 9.18758 15.5761 9.22925 15.8538C9.27091 16.1316 9.33341 16.4025 9.41675 16.6663H1.66675ZM14.3959 16.8747L17.2917 13.9997L16.4167 13.1247L14.3959 15.1038L13.5834 14.2913L12.7084 15.1872L14.3959 16.8747ZM15.0001 19.1663C13.8473 19.1663 12.8648 18.76 12.0526 17.9472C11.2404 17.1344 10.834 16.1519 10.8334 14.9997C10.8329 13.8475 11.2392 12.865 12.0526 12.0522C12.8659 11.2394 13.8484 10.833 15.0001 10.833C16.1517 10.833 17.1345 11.2394 17.9484 12.0522C18.7623 12.865 19.1684 13.8475 19.1667 14.9997C19.1651 16.1519 18.7587 17.1347 17.9476 17.948C17.1365 18.7613 16.154 19.1675 15.0001 19.1663Z" fill="#D4D4D4"/>
</svg>
