<svg width="57" height="57" viewBox="0 0 57 57" fill="none" xmlns="http://www.w3.org/2000/svg">
<g clip-path="url(#clip0_2440_11069)">
<rect x="0.520264" y="28.5332" width="39.5019" height="39.4963" rx="19.7482" transform="rotate(-45 0.520264 28.5332)" fill="#272727"/>
<path d="M34.3914 30.1972L33.818 27.0754C33.5699 25.7267 33.4458 25.0523 32.9554 24.6535C32.4651 24.2548 31.7599 24.2539 30.3505 24.2539H26.5629C25.1534 24.2539 24.4491 24.2539 23.9579 24.6535C23.4676 25.0523 23.3435 25.7267 23.0953 27.0754L22.522 30.1972C22.0085 32.9964 21.7509 34.3964 22.5425 35.3146C23.3341 36.2346 24.7974 36.2346 27.7224 36.2346H29.1909C32.1159 36.2346 33.5793 36.2346 34.3708 35.3155C35.1624 34.3964 34.9057 32.9964 34.3914 30.198" stroke="white" stroke-width="1.1849" stroke-linecap="round" stroke-linejoin="round"/>
<path d="M28.4547 27.2493V32.8117M26.3153 31.1002L28.4547 33.2396L30.5941 31.1002M36.1566 27.6772C36.2888 27.6112 36.4087 27.5229 36.5109 27.4161C37.0123 26.8976 37.0123 26.0598 37.0123 24.3842C37.0123 22.7086 37.0123 21.8717 36.5109 21.3514C36.0094 20.8311 35.2033 20.8311 33.5893 20.8311H23.3201C21.7062 20.8311 20.9 20.8311 20.3986 21.3514C19.8971 21.8717 19.8971 22.7095 19.8971 24.3842C19.8971 26.0589 19.8971 26.8967 20.3986 27.4161C20.5013 27.5234 20.6194 27.6104 20.7529 27.6772" stroke="white" stroke-width="1.1849" stroke-linecap="round" stroke-linejoin="round"/>
<g clip-path="url(#clip1_2440_11069)">
<path d="M8.62878 44.1703L12.818 44.1703M12.818 44.1703L12.818 48.3595M12.818 44.1703L2.76382 54.2245" stroke="#D9FD08" stroke-width="1.97484" stroke-linecap="round" stroke-linejoin="round"/>
</g>
</g>
<rect x="1.07883" y="28.5332" width="38.712" height="38.7064" rx="19.3532" transform="rotate(-45 1.07883 28.5332)" stroke="#535353" stroke-width="0.789934"/>
<defs>
<clipPath id="clip0_2440_11069">
<rect x="0.520264" y="28.5332" width="39.5019" height="39.4963" rx="19.7482" transform="rotate(-45 0.520264 28.5332)" fill="white"/>
</clipPath>
<clipPath id="clip1_2440_11069">
<rect width="18.9584" height="18.9584" fill="white" transform="translate(-5.61609 49.1982) rotate(-45)"/>
</clipPath>
</defs>
</svg>
