<svg width="18" height="14" viewBox="0 0 18 14" fill="none" xmlns="http://www.w3.org/2000/svg">
<path d="M1.5 1.16699V0.541992C1.33424 0.541992 1.17527 0.60784 1.05806 0.72505C0.940848 0.842261 0.875 1.00123 0.875 1.16699H1.5ZM16.5 1.16699H17.125C17.125 1.00123 17.0592 0.842261 16.9419 0.72505C16.8247 0.60784 16.6658 0.541992 16.5 0.541992V1.16699ZM1.5 1.79199H16.5V0.541992H1.5V1.79199ZM15.875 1.16699V11.167H17.125V1.16699H15.875ZM14.8333 12.2087H3.16667V13.4587H14.8333V12.2087ZM2.125 11.167V1.16699H0.875V11.167H2.125ZM3.16667 12.2087C2.59167 12.2087 2.125 11.742 2.125 11.167H0.875C0.875 11.7748 1.11644 12.3577 1.54621 12.7874C1.97598 13.2172 2.55888 13.4587 3.16667 13.4587V12.2087ZM15.875 11.167C15.875 11.742 15.4083 12.2087 14.8333 12.2087V13.4587C15.4411 13.4587 16.024 13.2172 16.4538 12.7874C16.8836 12.3577 17.125 11.7748 17.125 11.167H15.875Z" fill="#D4D4D4"/>
<path d="M1.5 1.16699L9 8.66699L16.5 1.16699" stroke="#D4D4D4" stroke-width="1.5" stroke-linecap="round" stroke-linejoin="round"/>
</svg>
