<svg width="20" height="20" viewBox="0 0 20 20" fill="none" xmlns="http://www.w3.org/2000/svg">
<path d="M16.6875 20H3.3125C2.175 20 1.25 19.075 1.25 17.9375V8.3125C1.25 7.175 2.175 6.25 3.3125 6.25H16.6875C17.825 6.25 18.75 7.175 18.75 8.3125V17.925C18.75 19.0625 17.825 19.9875 16.6875 19.9875V20ZM3.3125 7.5C2.8625 7.5 2.5 7.8625 2.5 8.3125V17.925C2.5 18.375 2.8625 18.7375 3.3125 18.7375H16.6875C17.1375 18.7375 17.5 18.375 17.5 17.925V8.3125C17.5 7.8625 17.1375 7.5 16.6875 7.5H3.3125Z" fill="#D4D4D4"/>
<path d="M15.675 7.5H4.32501V5.675C4.32501 2.55 6.87501 0 10 0C13.125 0 15.675 2.55 15.675 5.675V7.5ZM5.57501 6.25H14.425V5.675C14.425 3.2375 12.4375 1.25 10 1.25C7.56251 1.25 5.57501 3.2375 5.57501 5.675V6.25Z" fill="#D4D4D4"/>
<path d="M15 14.375C15.6904 14.375 16.25 13.8154 16.25 13.125C16.25 12.4346 15.6904 11.875 15 11.875C14.3096 11.875 13.75 12.4346 13.75 13.125C13.75 13.8154 14.3096 14.375 15 14.375Z" fill="#D4D4D4"/>
<path d="M10 14.375C10.6904 14.375 11.25 13.8154 11.25 13.125C11.25 12.4346 10.6904 11.875 10 11.875C9.30964 11.875 8.75 12.4346 8.75 13.125C8.75 13.8154 9.30964 14.375 10 14.375Z" fill="#D4D4D4"/>
<path d="M5 14.375C5.69036 14.375 6.25 13.8154 6.25 13.125C6.25 12.4346 5.69036 11.875 5 11.875C4.30964 11.875 3.75 12.4346 3.75 13.125C3.75 13.8154 4.30964 14.375 5 14.375Z" fill="#D4D4D4"/>
</svg>
