<svg width="26" height="26" viewBox="0 0 26 26" fill="none" xmlns="http://www.w3.org/2000/svg">
<rect x="0.183544" y="0.183544" width="25.3291" height="25.3291" rx="12.6646" stroke="#535353" stroke-width="0.367089"/>
<g clip-path="url(#clip0_2440_11107)">
<path fill-rule="evenodd" clip-rule="evenodd" d="M14.991 9.64367C14.3571 9.22014 13.6119 8.99408 12.8496 8.99408V5.13965C14.3742 5.13965 15.8647 5.59177 17.1324 6.43883C18.4001 7.28588 19.3882 8.48985 19.9716 9.89844C20.5551 11.307 20.7078 12.8571 20.4103 14.3524C20.1129 15.8478 19.3787 17.2214 18.3006 18.2995C17.2225 19.3776 15.8489 20.1118 14.3535 20.4092C12.8581 20.7067 11.3081 20.554 9.89951 19.9706C8.49091 19.3871 7.28695 18.399 6.43989 17.1313C5.59283 15.8636 5.14072 14.3732 5.14072 12.8485H8.99515C8.99515 13.6108 9.22121 14.3561 9.64473 14.9899C10.0683 15.6238 10.6702 16.1178 11.3746 16.4095C12.0788 16.7013 12.8539 16.7776 13.6015 16.6289C14.3492 16.4802 15.036 16.1131 15.5751 15.574C16.1141 15.0349 16.4812 14.3482 16.6299 13.6005C16.7787 12.8528 16.7024 12.0778 16.4106 11.3735C16.1189 10.6692 15.6248 10.0672 14.991 9.64367Z" fill="#D9FD08"/>
<path fill-rule="evenodd" clip-rule="evenodd" d="M8.99515 5.13965C8.99515 5.64582 8.89545 6.14704 8.70175 6.61467C8.50804 7.08232 8.22413 7.50723 7.86621 7.86514C7.50829 8.22306 7.08339 8.50698 6.61574 8.70068C6.1481 8.89438 5.64689 8.99408 5.14072 8.99408L5.14072 12.8485C6.15306 12.8485 7.15549 12.6491 8.09077 12.2617C9.02606 11.8743 9.87588 11.3065 10.5917 10.5906C11.3075 9.87482 11.8754 9.02499 12.2628 8.0897C12.6502 7.15442 12.8496 6.15199 12.8496 5.13965L8.99515 5.13965Z" fill="#D9FD08"/>
</g>
<defs>
<clipPath id="clip0_2440_11107">
<rect width="15.4177" height="15.4177" fill="white" transform="translate(5.13925 5.13965)"/>
</clipPath>
</defs>
</svg>
