<svg width="16" height="16" viewBox="0 0 16 16" fill="none" xmlns="http://www.w3.org/2000/svg">
<g clip-path="url(#clip0_2812_672)">
<path fill-rule="evenodd" clip-rule="evenodd" d="M9.99098 4.64269C9.35712 4.21916 8.61191 3.9931 7.84958 3.9931V0.138672C9.37424 0.138672 10.8647 0.590789 12.1324 1.43785C13.4001 2.28491 14.3882 3.48887 14.9716 4.89747C15.5551 6.30607 15.7078 7.85609 15.4103 9.35145C15.1129 10.8468 14.3787 12.2204 13.3006 13.2985C12.2225 14.3766 10.8489 15.1108 9.3535 15.4083C7.85813 15.7057 6.30811 15.553 4.89951 14.9696C3.49091 14.3861 2.28695 13.3981 1.43989 12.1303C0.592834 10.8626 0.140717 9.37219 0.140717 7.84753H3.99515C3.99515 8.60986 4.22121 9.35508 4.64473 9.98894C5.06826 10.6228 5.67024 11.1168 6.37456 11.4086C7.07885 11.7003 7.85386 11.7766 8.60154 11.6279C9.34922 11.4792 10.036 11.1121 10.5751 10.573C11.1141 10.034 11.4812 9.34718 11.6299 8.59949C11.7787 7.85181 11.7024 7.0768 11.4106 6.37252C11.1189 5.6682 10.6248 5.06621 9.99098 4.64269Z" fill="#E8D710"/>
<path fill-rule="evenodd" clip-rule="evenodd" d="M3.99515 0.138674C3.99515 0.644845 3.89545 1.14606 3.70175 1.6137C3.50804 2.08134 3.22413 2.50625 2.86621 2.86417C2.50829 3.22209 2.08339 3.506 1.61574 3.6997C1.1481 3.8934 0.646886 3.9931 0.140717 3.9931L0.140717 7.84753C1.15306 7.84753 2.15549 7.64814 3.09077 7.26074C4.02606 6.87333 4.87588 6.30549 5.59169 5.58965C6.30753 4.87384 6.87537 4.02402 7.26278 3.08873C7.65019 2.15344 7.84958 1.15101 7.84958 0.138672L3.99515 0.138674Z" fill="#E8D710"/>
</g>
<defs>
<clipPath id="clip0_2812_672">
<rect width="15.4177" height="15.4177" fill="white" transform="translate(0.139252 0.138672)"/>
</clipPath>
</defs>
</svg>
