<svg width="12" height="12" viewBox="0 0 12 12" fill="none" xmlns="http://www.w3.org/2000/svg">
<path d="M0.166748 0.166992H11.8334V11.8337H9.33342V2.66699H0.166748V0.166992Z" fill="#AFAFAF"/>
<path fill-rule="evenodd" clip-rule="evenodd" d="M4.33341 11.8333C5.43848 11.8333 6.49829 11.3943 7.27969 10.6129C8.06109 9.83154 8.50008 8.77174 8.50008 7.66667C8.50008 6.5616 8.06109 5.50179 7.27969 4.72039C6.49829 3.93899 5.43848 3.5 4.33341 3.5C3.22835 3.5 2.16854 3.93899 1.38714 4.72039C0.605735 5.50179 0.166748 6.5616 0.166748 7.66667C0.166748 8.77174 0.605735 9.83154 1.38714 10.6129C2.16854 11.3943 3.22835 11.8333 4.33341 11.8333ZM4.33341 9.33333C4.77544 9.33333 5.19937 9.15774 5.51193 8.84518C5.82449 8.53262 6.00008 8.10869 6.00008 7.66667C6.00008 7.22464 5.82449 6.80072 5.51193 6.48816C5.19937 6.1756 4.77544 6 4.33341 6C3.89139 6 3.46746 6.1756 3.1549 6.48816C2.84234 6.80072 2.66675 7.22464 2.66675 7.66667C2.66675 8.10869 2.84234 8.53262 3.1549 8.84518C3.46746 9.15774 3.89139 9.33333 4.33341 9.33333Z" fill="#AFAFAF"/>
</svg>
