<svg width="20" height="20" viewBox="0 0 20 20" fill="none" xmlns="http://www.w3.org/2000/svg">
<path d="M11.7432 9.1482C11.4934 10.1476 9.93782 9.63985 9.45423 9.50283L9.89752 7.7458C10.3972 7.89088 12.0011 8.10043 11.7432 9.1482ZM9.23662 10.4055L8.75303 12.3479C9.34945 12.5011 11.1951 13.0894 11.4692 11.9933C11.7593 10.8488 9.83304 10.5506 9.23662 10.4055ZM17.7558 12.2593C16.6758 16.5793 12.3074 19.2068 7.98735 18.1268C3.66732 17.0468 1.04226 12.6784 2.11985 8.35834C2.37586 7.3316 2.83163 6.36535 3.46113 5.51478C4.09063 4.6642 4.88152 3.94597 5.78864 3.4011C6.69575 2.85623 7.70132 2.4954 8.74791 2.33922C9.7945 2.18303 10.8616 2.23455 11.8883 2.49084C16.2003 3.57084 18.8277 7.93924 17.7558 12.2593ZM11.719 7.1252L12.0817 5.67444L11.1951 5.47295L10.8405 6.86729C10.6068 6.81087 10.373 6.75445 10.1313 6.70609L10.4859 5.27951L9.60737 5.06996L9.24468 6.51266C9.05124 6.4643 8.85781 6.424 8.68049 6.37564L7.46347 6.06937L7.22168 7.01236C7.22168 7.01236 7.88258 7.1655 7.86646 7.17356C8.22915 7.26222 8.29362 7.48789 8.2775 7.68938L7.28615 11.6628C7.24586 11.7757 7.1169 11.9208 6.88317 11.8805C6.89123 11.8885 6.23839 11.7193 6.23839 11.7193L5.80316 12.7267L6.94764 13.0169C7.16526 13.0733 7.37481 13.1297 7.58437 13.1781L7.21362 14.645L8.10019 14.8706L8.46288 13.4118C8.70467 13.4763 8.93841 13.5327 9.16408 13.5972L8.80139 15.0399L9.68796 15.2656L10.0587 13.7987C11.5498 14.0808 12.6943 13.9679 13.1617 12.6058C13.5647 11.5178 13.1617 10.873 12.3557 10.4619C12.936 10.3088 13.3713 9.94612 13.4922 9.15626C13.6534 8.08431 12.8313 7.51207 11.719 7.1252Z" fill="white"/>
</svg>
