<svg width="50" height="50" viewBox="0 0 50 50" fill="none" xmlns="http://www.w3.org/2000/svg">
<rect x="0.357143" y="0.357143" width="49.2857" height="49.2857" rx="24.6429" stroke="#3A3A3A" stroke-opacity="0.5" stroke-width="0.714286"/>
<path fill-rule="evenodd" clip-rule="evenodd" d="M24.7428 24.503L28.6338 28.394L27.7858 29.243L23.5428 25V19H24.7428V24.503ZM24.1428 35C18.6198 35 14.1428 30.523 14.1428 25C14.1428 19.477 18.6198 15 24.1428 15C29.6658 15 34.1428 19.477 34.1428 25C34.1428 30.523 29.6658 35 24.1428 35ZM24.1428 33.8C26.4767 33.8 28.715 32.8729 30.3654 31.2225C32.0157 29.5722 32.9428 27.3339 32.9428 25C32.9428 22.6661 32.0157 20.4278 30.3654 18.7775C28.715 17.1271 26.4767 16.2 24.1428 16.2C21.8089 16.2 19.5706 17.1271 17.9203 18.7775C16.27 20.4278 15.3428 22.6661 15.3428 25C15.3428 27.3339 16.27 29.5722 17.9203 31.2225C19.5706 32.8729 21.8089 33.8 24.1428 33.8Z" fill="#EB8A26"/>
</svg>
