<svg width="16" height="17" viewBox="0 0 16 17" fill="none" xmlns="http://www.w3.org/2000/svg">
<path d="M10.9999 7.98749L6.84529 5.90954C6.72784 5.85076 6.59731 5.82301 6.46611 5.8289C6.33491 5.8348 6.20739 5.87415 6.09569 5.94322C5.98398 6.01229 5.8918 6.10878 5.8279 6.22351C5.76399 6.33825 5.7305 6.46743 5.73059 6.59876V10.5236C5.7305 10.655 5.76399 10.7841 5.8279 10.8989C5.8918 11.0136 5.98398 11.1101 6.09569 11.1792C6.20739 11.2483 6.33491 11.2876 6.46611 11.2935C6.59731 11.2994 6.72784 11.2716 6.84529 11.2129L10.9999 9.13492C11.1064 9.08156 11.1959 8.99964 11.2584 8.89832C11.321 8.797 11.3541 8.68028 11.3541 8.5612C11.3541 8.44213 11.321 8.3254 11.2584 8.22408C11.1959 8.12276 11.1064 8.04084 10.9999 7.98749Z" stroke="#D9FD08" stroke-width="0.61607" stroke-linecap="round" stroke-linejoin="round"/>
<path d="M8.30123 14.3374C11.491 14.3374 14.0769 11.7516 14.0769 8.56178C14.0769 5.37198 11.491 2.78613 8.30123 2.78613C5.11142 2.78613 2.52557 5.37198 2.52557 8.56178C2.52557 11.7516 5.11142 14.3374 8.30123 14.3374Z" stroke="#D9FD08" stroke-width="0.61607"/>
</svg>
