<svg width="26" height="27" viewBox="0 0 26 27" fill="none" xmlns="http://www.w3.org/2000/svg">
<path d="M7.59094 13.4999C7.59094 13.2844 7.67654 13.0778 7.82892 12.9254C7.98129 12.773 8.18795 12.6874 8.40344 12.6874H12.1875V8.90332C12.1875 8.68783 12.2731 8.48117 12.4255 8.3288C12.5779 8.17642 12.7845 8.09082 13 8.09082C13.2155 8.09082 13.4222 8.17642 13.5745 8.3288C13.7269 8.48117 13.8125 8.68783 13.8125 8.90332V12.6874H17.5966C17.8121 12.6874 18.0188 12.773 18.1711 12.9254C18.3235 13.0778 18.4091 13.2844 18.4091 13.4999C18.4091 13.7154 18.3235 13.9221 18.1711 14.0744C18.0188 14.2268 17.8121 14.3124 17.5966 14.3124H13.8125V18.0965C13.8125 18.312 13.7269 18.5186 13.5745 18.671C13.4222 18.8234 13.2155 18.909 13 18.909C12.7845 18.909 12.5779 18.8234 12.4255 18.671C12.2731 18.5186 12.1875 18.312 12.1875 18.0965V14.3124H8.40344C8.18795 14.3124 7.98129 14.2268 7.82892 14.0744C7.67654 13.9221 7.59094 13.7154 7.59094 13.4999Z" fill="#D9FD08"/>
<path fill-rule="evenodd" clip-rule="evenodd" d="M7.92676 4.58309C11.2986 4.20928 14.7014 4.20928 18.0733 4.58309C20.0525 4.80409 21.6504 6.36301 21.8823 8.35309C22.2831 11.7732 22.2831 15.2279 21.8823 18.648C21.6493 20.6381 20.0514 22.1959 18.0733 22.418C14.7014 22.7918 11.2986 22.7918 7.92676 22.418C5.94751 22.1959 4.34959 20.6381 4.11776 18.648C3.71872 15.228 3.71872 11.7731 4.11776 8.35309C4.34959 6.36301 5.94859 4.80409 7.92676 4.58309ZM17.8934 6.19726C14.6411 5.83676 11.3589 5.83676 8.10659 6.19726C7.50452 6.26405 6.94255 6.53187 6.51147 6.95745C6.08039 7.38303 5.80537 7.94151 5.73084 8.54268C5.34553 11.8371 5.34553 15.1651 5.73084 18.4595C5.80559 19.0605 6.08071 19.6187 6.51178 20.0441C6.94284 20.4694 7.50468 20.7371 8.10659 20.8038C11.3317 21.1635 14.6683 21.1635 17.8934 20.8038C18.4951 20.7369 19.0567 20.4691 19.4876 20.0438C19.9184 19.6184 20.1934 19.0603 20.2681 18.4595C20.6534 15.1651 20.6534 11.8371 20.2681 8.54268C20.1932 7.94207 19.9181 7.38421 19.4873 6.95909C19.0565 6.53396 18.495 6.26635 17.8934 6.19943" fill="#D9FD08"/>
</svg>
