<svg width="20" height="20" viewBox="0 0 20 20" fill="none" xmlns="http://www.w3.org/2000/svg">
<g clip-path="url(#clip0_2440_11235)">
<path d="M17.3655 13.6722C17.3295 13.6359 17.2867 13.607 17.2395 13.5874C17.1924 13.5677 17.1417 13.5576 17.0906 13.5576C17.0395 13.5576 16.9889 13.5677 16.9418 13.5874C16.8946 13.607 16.8518 13.6359 16.8158 13.6722L15.2683 15.2196C15.2122 15.2733 15.1739 15.3429 15.1586 15.419C15.1433 15.4951 15.1518 15.5741 15.1829 15.6452C15.2129 15.7152 15.2625 15.775 15.3257 15.8175C15.3889 15.86 15.463 15.8833 15.5391 15.8846H15.9727C16.0052 15.8858 16.0369 15.8949 16.0651 15.911C16.0933 15.9272 16.1172 15.9499 16.1347 15.9773C16.1523 16.0037 16.1616 16.0346 16.1616 16.0663C16.1616 16.098 16.1523 16.129 16.1347 16.1554C15.8646 16.6858 15.4471 17.1271 14.9325 17.4263C14.4179 17.7255 13.8279 17.8699 13.2332 17.8423C13.028 17.8423 12.8312 17.9238 12.6861 18.0689C12.541 18.214 12.4595 18.4108 12.4595 18.616C12.4595 18.8212 12.541 19.018 12.6861 19.1631C12.8312 19.3082 13.028 19.3898 13.2332 19.3898C15.5544 19.3898 17.4429 17.9277 17.7983 16.0474C17.8087 16.0037 17.8334 15.9648 17.8684 15.9368C17.9035 15.9087 17.9468 15.8932 17.9917 15.8926H18.6421C18.7189 15.8934 18.794 15.8708 18.8576 15.8279C18.9212 15.785 18.9703 15.7238 18.9984 15.6524C19.0288 15.5825 19.0369 15.5049 19.0216 15.4302C19.0064 15.3555 18.9684 15.2873 18.913 15.235L17.3655 13.6722ZM2.12849 6.51348C2.19942 6.58682 2.29775 6.62632 2.3993 6.62229C2.44951 6.6239 2.49951 6.61506 2.54613 6.59633C2.59275 6.5776 2.63496 6.54938 2.67011 6.51348L4.21758 4.96601C4.27102 4.91149 4.30713 4.84238 4.32138 4.76739C4.33562 4.69239 4.32736 4.61485 4.29764 4.54454C4.26791 4.47423 4.21804 4.41428 4.15432 4.37225C4.09059 4.33022 4.01586 4.30798 3.93952 4.30833H3.5059C3.47407 4.3079 3.4428 4.29993 3.41464 4.28508C3.38648 4.27023 3.36224 4.24892 3.3439 4.2229C3.32906 4.19425 3.32132 4.16247 3.32132 4.13021C3.32132 4.09795 3.32906 4.06616 3.3439 4.03752C3.61682 3.50864 4.03644 3.06966 4.55249 2.77318C5.06853 2.47671 5.65912 2.33531 6.25348 2.36593C6.45869 2.36593 6.65549 2.28441 6.80059 2.1393C6.9457 1.9942 7.02722 1.7974 7.02722 1.59219C7.02722 1.38698 6.9457 1.19018 6.80059 1.04507C6.65549 0.89997 6.45869 0.818451 6.25348 0.818451C5.22497 0.770092 4.21093 1.07548 3.38018 1.68377C2.54943 2.29206 1.95209 3.16654 1.68762 4.16164C1.67721 4.20529 1.65253 4.24422 1.61749 4.27225C1.58245 4.30028 1.53906 4.31582 1.49419 4.31639H0.84457C0.768192 4.31667 0.693606 4.33955 0.63021 4.38215C0.566815 4.42474 0.517447 4.48515 0.488328 4.55576C0.459354 4.62721 0.451928 4.70558 0.466966 4.7812C0.482004 4.85683 0.518849 4.92639 0.572956 4.98132L2.12849 6.51348ZM8.38932 12.4261C8.38723 12.2729 8.32542 12.1265 8.21704 12.0181C8.10866 11.9097 7.96227 11.8479 7.80901 11.8458H5.87467C5.82337 11.8458 5.77417 11.8662 5.73789 11.9025C5.70161 11.9388 5.68123 11.988 5.68123 12.0393V12.813C5.68123 12.9194 5.76747 13.0064 5.87467 13.0064H7.80901C7.96227 13.0043 8.10866 12.9425 8.21704 12.8342C8.32542 12.7258 8.38723 12.5794 8.38932 12.4261ZM7.80821 14.159H5.87386C5.84846 14.159 5.82331 14.164 5.79984 14.1737C5.77637 14.1834 5.75505 14.1977 5.73708 14.2156C5.71912 14.2336 5.70487 14.2549 5.69515 14.2784C5.68543 14.3019 5.68043 14.327 5.68043 14.3524V15.1261C5.68043 15.2333 5.76747 15.3196 5.87386 15.3196H7.80821C7.96211 15.3196 8.10971 15.2584 8.21854 15.1496C8.32737 15.0408 8.38851 14.8932 8.38851 14.7393C8.38851 14.5854 8.32737 14.4378 8.21854 14.3289C8.10971 14.2201 7.96211 14.159 7.80821 14.159Z" fill="white"/>
<path d="M6.84124 7.7826C2.37371 7.7826 -0.41819 12.6185 1.81517 16.4871C4.04853 20.3558 9.63314 20.3574 11.8673 16.488C12.3767 15.6058 12.645 14.6051 12.6451 13.5864C12.641 12.0485 12.0284 10.5748 10.941 9.48725C9.85361 8.39972 8.37994 7.78685 6.84205 7.7826M5.29457 17.0683V16.6814C5.29457 16.6301 5.27419 16.5809 5.23791 16.5446C5.20164 16.5083 5.15244 16.488 5.10114 16.488C5.02394 16.4891 4.94731 16.4746 4.87587 16.4453C4.80442 16.416 4.73965 16.3726 4.68543 16.3176C4.63121 16.2626 4.58868 16.1973 4.56039 16.1254C4.53211 16.0536 4.51865 15.9768 4.52083 15.8996V11.2572C4.52083 11.1033 4.58197 10.9557 4.6908 10.8468C4.79963 10.738 4.94723 10.6769 5.10114 10.6769C5.15244 10.6769 5.20164 10.6565 5.23791 10.6202C5.27419 10.5839 5.29457 10.5347 5.29457 10.4834V10.1046C5.29457 9.95071 5.35571 9.80311 5.46454 9.69428C5.57337 9.58545 5.72097 9.52431 5.87487 9.52431C6.02878 9.52431 6.17638 9.58545 6.28521 9.69428C6.39404 9.80311 6.45518 9.95071 6.45518 10.1046V10.4915C6.45518 10.5979 6.54222 10.6849 6.64861 10.6849H7.03548C7.08678 10.6849 7.13598 10.6645 7.17226 10.6283C7.20853 10.592 7.22891 10.5428 7.22891 10.4915V10.1046C7.22891 9.95071 7.29005 9.80311 7.39888 9.69428C7.50771 9.58545 7.65531 9.52431 7.80922 9.52431C7.96312 9.52431 8.11073 9.58545 8.21955 9.69428C8.32838 9.80311 8.38952 9.95071 8.38952 10.1046V10.6607C8.38942 10.6986 8.40045 10.7357 8.42122 10.7673C8.442 10.799 8.47161 10.8239 8.50639 10.8389C8.74837 10.9413 8.96361 11.098 9.1355 11.2967C9.3074 11.4955 9.43137 11.7311 9.49787 11.9853C9.56437 12.2395 9.57162 12.5056 9.51905 12.7631C9.46649 13.0206 9.35552 13.2626 9.19469 13.4704C9.16827 13.5033 9.15386 13.5442 9.15386 13.5864C9.15386 13.6286 9.16827 13.6696 9.19469 13.7025C9.42153 14.0039 9.54632 14.3698 9.55093 14.747C9.54958 15.0854 9.4501 15.4161 9.26456 15.6991C9.07901 15.9821 8.81537 16.2051 8.50558 16.3413C8.47231 16.3557 8.44378 16.3793 8.42325 16.4092C8.40273 16.4392 8.39104 16.4743 8.38952 16.5105V17.0683C8.38952 17.2222 8.32838 17.3698 8.21955 17.4786C8.11073 17.5874 7.96312 17.6486 7.80922 17.6486C7.65531 17.6486 7.50771 17.5874 7.39888 17.4786C7.29005 17.3698 7.22891 17.2222 7.22891 17.0683V16.6814C7.22891 16.6301 7.20853 16.5809 7.17226 16.5446C7.13598 16.5083 7.08678 16.488 7.03548 16.488H6.64861C6.59731 16.488 6.54811 16.5083 6.51183 16.5446C6.47556 16.5809 6.45518 16.6301 6.45518 16.6814V17.0683C6.45518 17.2222 6.39404 17.3698 6.28521 17.4786C6.17638 17.5874 6.02878 17.6486 5.87487 17.6486C5.72097 17.6486 5.57337 17.5874 5.46454 17.4786C5.35571 17.3698 5.29457 17.2222 5.29457 17.0683ZM15.1605 9.33007C18.436 9.33007 20.484 5.78378 18.8455 2.94674C17.2077 0.108899 13.1125 0.108899 11.474 2.94674C11.1005 3.59369 10.9038 4.32756 10.9039 5.0746C10.9039 5.82163 11.1005 6.5555 11.4741 7.20243C11.8476 7.84937 12.3849 8.38657 13.0318 8.76006C13.6788 9.13354 14.4135 9.33013 15.1605 9.33007ZM16.1269 2.55181C16.2808 2.55181 16.4284 2.61295 16.5372 2.72178C16.6461 2.83061 16.7072 2.97821 16.7072 3.13212C16.7072 3.28602 16.6461 3.43362 16.5372 3.54245C16.4284 3.65128 16.2808 3.71242 16.1269 3.71242H14.8107C14.7363 3.71452 14.6655 3.74559 14.6136 3.79902C14.5617 3.85245 14.5326 3.92403 14.5327 3.99854C14.5325 4.05506 14.5493 4.11033 14.5809 4.15717C14.6126 4.20402 14.6575 4.2403 14.71 4.26129L16.0415 4.79565C16.5895 5.01729 16.949 5.55005 16.9466 6.14163C16.9466 6.79286 16.5081 7.36188 15.8787 7.5271C15.8385 7.53878 15.8032 7.56315 15.7781 7.59657C15.7529 7.62999 15.7393 7.67066 15.7392 7.71248V7.7826C15.7392 7.93651 15.6781 8.08411 15.5693 8.19294C15.4604 8.30176 15.3128 8.3629 15.1589 8.3629C15.005 8.3629 14.8574 8.30176 14.7486 8.19294C14.6398 8.08411 14.5786 7.93651 14.5786 7.7826C14.5786 7.7572 14.5736 7.73204 14.5639 7.70858C14.5542 7.68511 14.5399 7.66378 14.522 7.64582C14.504 7.62786 14.4827 7.61361 14.4592 7.60389C14.4357 7.59417 14.4106 7.58917 14.3852 7.58917H14.1917C14.1155 7.58917 14.0401 7.57416 13.9697 7.54499C13.8993 7.51583 13.8353 7.47308 13.7814 7.4192C13.7275 7.36531 13.6848 7.30134 13.6556 7.23093C13.6265 7.16053 13.6114 7.08507 13.6114 7.00886C13.6114 6.93266 13.6265 6.8572 13.6556 6.78679C13.6848 6.71638 13.7275 6.65241 13.7814 6.59853C13.8353 6.54464 13.8993 6.50189 13.9697 6.47273C14.0401 6.44357 14.1155 6.42856 14.1917 6.42856H15.4998C15.5371 6.42953 15.5741 6.42303 15.6088 6.40945C15.6435 6.39587 15.6751 6.37548 15.7017 6.34949C15.7284 6.3235 15.7496 6.29243 15.7641 6.25811C15.7785 6.2238 15.786 6.18693 15.786 6.14969C15.7872 6.09193 15.7709 6.03514 15.7393 5.9868C15.7076 5.93847 15.6621 5.90084 15.6087 5.87888L14.2772 5.35258C13.2423 4.93912 13.044 3.5609 13.9193 2.87179C14.0708 2.7525 14.2457 2.66465 14.4319 2.61387C14.4748 2.60322 14.5127 2.57822 14.5394 2.54303C14.5661 2.50784 14.5799 2.46458 14.5786 2.42044V2.36563C14.5786 2.21173 14.6398 2.06412 14.7486 1.9553C14.8574 1.84647 15.005 1.78533 15.1589 1.78533C15.3128 1.78533 15.4604 1.84647 15.5693 1.9553C15.6781 2.06412 15.7392 2.21173 15.7392 2.36563C15.7392 2.47283 15.8263 2.55907 15.9327 2.55907L16.1269 2.55181Z" fill="white"/>
</g>
<defs>
<clipPath id="clip0_2440_11235">
<rect width="19.3434" height="19.3434" fill="white" transform="translate(0.266113 0.429688)"/>
</clipPath>
</defs>
</svg>
