<svg width="20" height="20" viewBox="0 0 20 20" fill="none" xmlns="http://www.w3.org/2000/svg">
<path d="M12.3742 12.3136L15.3825 15.2936L13.97 16.6911L10.9617 13.7119C10.835 13.586 10.6847 13.4862 10.5193 13.4185C10.354 13.3507 10.177 13.3162 9.99833 13.3169C9.63167 13.3169 9.29333 13.4561 9.035 13.7119L6.02667 16.6919L4.615 15.2936L7.62333 12.3136H12.3742ZM12.8758 11.4553L16.9842 12.5436L17.5 10.6319L13.3917 9.54276C13.219 9.49778 13.057 9.41901 12.9149 9.31102C12.7729 9.20302 12.6537 9.06795 12.5642 8.91359C12.4744 8.76039 12.4162 8.59081 12.3928 8.4148C12.3695 8.23878 12.3816 8.05988 12.4283 7.88859L13.5283 3.82026L11.5983 3.30859L10.4983 7.37859L12.8733 11.4519L12.8758 11.4553ZM7.12417 11.4553L3.01583 12.5436L2.5 10.6319L6.60833 9.54276C6.781 9.49778 6.94303 9.41901 7.08507 9.31102C7.22711 9.20302 7.34632 9.06795 7.43583 8.91359C7.52558 8.76039 7.58383 8.59081 7.60715 8.4148C7.63048 8.23878 7.61841 8.05988 7.57167 7.88859L6.47167 3.82026L8.40167 3.30859L9.50167 7.37859L7.12667 11.4519L7.12417 11.4553Z" fill="#AFAFAF"/>
</svg>
