<svg width="18" height="18" viewBox="0 0 18 18" fill="none" xmlns="http://www.w3.org/2000/svg">
<path d="M17.6516 16.5387L9.74221 4.1801L11.4016 1.58713C11.4458 1.51798 11.476 1.4408 11.4904 1.35999C11.5047 1.27918 11.5031 1.19633 11.4855 1.11617C11.4678 1.03601 11.4346 0.960102 11.3876 0.892787C11.3407 0.825473 11.2809 0.768067 11.2117 0.723849C11.1426 0.67963 11.0654 0.649464 10.9846 0.635074C10.9038 0.620684 10.8209 0.62235 10.7408 0.639979C10.6606 0.657608 10.5847 0.690853 10.5174 0.737817C10.4501 0.784781 10.3927 0.844543 10.3485 0.913692L9.00002 3.02072L7.65158 0.911348C7.56228 0.771695 7.42116 0.673238 7.25926 0.637635C7.09736 0.602033 6.92796 0.632201 6.7883 0.721505C6.64865 0.810808 6.55019 0.951931 6.51459 1.11383C6.47899 1.27572 6.50916 1.44513 6.59846 1.58479L8.25783 4.1801L0.348459 16.5387C0.288056 16.6331 0.254173 16.7421 0.250361 16.8542C0.246549 16.9662 0.272949 17.0772 0.326793 17.1756C0.380636 17.2739 0.459942 17.356 0.556397 17.4131C0.652852 17.4703 0.762905 17.5004 0.875021 17.5004H17.125C17.2371 17.5004 17.3472 17.4703 17.4436 17.4131C17.5401 17.356 17.6194 17.2739 17.6732 17.1756C17.7271 17.0772 17.7535 16.9662 17.7497 16.8542C17.7459 16.7421 17.712 16.6331 17.6516 16.5387ZM5.74221 16.2504L9.00002 11.1598L12.2578 16.2504H5.74221ZM13.7422 16.2504L9.52346 9.66369C9.46694 9.5753 9.38908 9.50256 9.29706 9.45217C9.20504 9.40179 9.10181 9.37538 8.9969 9.37538C8.89198 9.37538 8.78876 9.40179 8.69673 9.45217C8.60471 9.50256 8.52685 9.5753 8.47033 9.66369L4.25783 16.2504H2.01721L9.00002 5.33947L15.9828 16.2504H13.7422Z" fill="#AFAFAF"/>
</svg>
