<svg width="21" height="20" viewBox="0 0 21 20" fill="none" xmlns="http://www.w3.org/2000/svg">
<path d="M8.19539 1.78128C6.67209 1.77322 5.1891 3.2401 5.86612 5.06161H3.31117C2.88366 5.06161 2.47365 5.23144 2.17135 5.53374C1.86905 5.83604 1.69922 6.24604 1.69922 6.67356V8.28551C1.69922 8.49927 1.78413 8.70427 1.93528 8.85542C2.08643 9.00657 2.29144 9.09149 2.5052 9.09149H9.75898V6.67356H11.3709V9.09149H18.6247C18.8385 9.09149 19.0435 9.00657 19.1946 8.85542C19.3458 8.70427 19.4307 8.49927 19.4307 8.28551V6.67356C19.4307 6.24604 19.2609 5.83604 18.9586 5.53374C18.6563 5.23144 18.2463 5.06161 17.8187 5.06161H15.2638C16.2068 2.42606 12.6605 0.564259 11.0244 2.83711L10.565 3.44965L10.1056 2.82099C9.59779 2.10367 8.89659 1.78934 8.19539 1.78128ZM8.14703 3.44965C8.86435 3.44965 9.22704 4.32011 8.71927 4.82787C8.21151 5.33564 7.34105 4.97295 7.34105 4.25563C7.34105 4.04187 7.42597 3.83687 7.57712 3.68572C7.72827 3.53457 7.93327 3.44965 8.14703 3.44965ZM12.9829 3.44965C13.7002 3.44965 14.0629 4.32011 13.5551 4.82787C13.0474 5.33564 12.1769 4.97295 12.1769 4.25563C12.1769 4.04187 12.2618 3.83687 12.413 3.68572C12.5641 3.53457 12.7691 3.44965 12.9829 3.44965ZM2.5052 9.89746V16.3453C2.5052 16.7728 2.67503 17.1828 2.97733 17.4851C3.27963 17.7874 3.68963 17.9572 4.11715 17.9572H17.0128C17.4403 17.9572 17.8503 17.7874 18.1526 17.4851C18.4549 17.1828 18.6247 16.7728 18.6247 16.3453V9.89746H11.3709V16.3453H9.75898V9.89746H2.5052Z" fill="#D9FD08"/>
</svg>
