<svg width="25" height="24" viewBox="0 0 25 24" fill="none" xmlns="http://www.w3.org/2000/svg">
<path d="M9.49994 17.7505C9.08994 17.7505 8.74994 17.4105 8.74994 17.0005V12.8105L8.02994 13.5305C7.73994 13.8205 7.25994 13.8205 6.96994 13.5305C6.67994 13.2405 6.67994 12.7605 6.96994 12.4705L8.96994 10.4705C9.17994 10.2605 9.50994 10.1905 9.78994 10.3105C10.0699 10.4205 10.2499 10.7005 10.2499 11.0005V17.0005C10.2499 17.4105 9.90994 17.7505 9.49994 17.7505Z" fill="#1A1A1A"/>
<path d="M11.4999 13.7504C11.3099 13.7504 11.1199 13.6804 10.9699 13.5304L8.96994 11.5304C8.67994 11.2404 8.67994 10.7604 8.96994 10.4704C9.25994 10.1804 9.73994 10.1804 10.0299 10.4704L12.0299 12.4704C12.3199 12.7604 12.3199 13.2404 12.0299 13.5304C11.8799 13.6804 11.6899 13.7504 11.4999 13.7504Z" fill="#1A1A1A"/>
<path d="M15.5 22.75H9.5C4.07 22.75 1.75 20.43 1.75 15V9C1.75 3.57 4.07 1.25 9.5 1.25H14.5C14.91 1.25 15.25 1.59 15.25 2C15.25 2.41 14.91 2.75 14.5 2.75H9.5C4.89 2.75 3.25 4.39 3.25 9V15C3.25 19.61 4.89 21.25 9.5 21.25H15.5C20.11 21.25 21.75 19.61 21.75 15V10C21.75 9.59 22.09 9.25 22.5 9.25C22.91 9.25 23.25 9.59 23.25 10V15C23.25 20.43 20.93 22.75 15.5 22.75Z" fill="#1A1A1A"/>
<path d="M22.5 10.7505H18.5C15.08 10.7505 13.75 9.42048 13.75 6.00048V2.00048C13.75 1.70048 13.93 1.42048 14.21 1.31048C14.49 1.19048 14.81 1.26048 15.03 1.47048L23.03 9.47048C23.24 9.68048 23.31 10.0105 23.19 10.2905C23.07 10.5705 22.8 10.7505 22.5 10.7505ZM15.25 3.81048V6.00048C15.25 8.58048 15.92 9.25048 18.5 9.25048H20.69L15.25 3.81048Z" fill="#1A1A1A"/>
</svg>
