<svg width="57" height="57" viewBox="0 0 57 57" fill="none" xmlns="http://www.w3.org/2000/svg">
<g clip-path="url(#clip0_2440_11080)">
<rect x="0.520264" y="28.7305" width="39.5019" height="39.4963" rx="19.7482" transform="rotate(-45 0.520264 28.7305)" fill="#272727"/>
<g clip-path="url(#clip1_2440_11080)">
<path d="M19.6674 29.6969C19.6674 34.0693 23.3983 37.6136 28.0008 37.6136C32.6033 37.6136 36.3341 34.0693 36.3341 29.6969C36.3341 25.3246 32.6033 21.7803 28.0008 21.7803C24.5841 21.7803 21.6466 23.7341 20.3608 26.5303M19.6674 23.7594L20.0841 26.9261L23.4174 26.1344" stroke="white" stroke-width="1.5" stroke-linecap="round" stroke-linejoin="round"/>
<path d="M26.7507 29.6966H29.8757C30.0672 29.6966 30.2569 29.7324 30.4338 29.8021C30.6107 29.8717 30.7715 29.9737 30.9069 30.1024C31.0423 30.231 31.1498 30.3838 31.2231 30.5519C31.2963 30.7199 31.3341 30.9001 31.3341 31.082C31.3341 31.264 31.2963 31.4441 31.2231 31.6122C31.1498 31.7803 31.0423 31.933 30.9069 32.0617C30.7715 32.1903 30.6107 32.2924 30.4338 32.362C30.2569 32.4316 30.0672 32.4674 29.8757 32.4674H26.7507M26.7507 29.6966V32.4674M26.7507 29.6966H29.4591C29.8458 29.6966 30.2168 29.5507 30.4903 29.2908C30.7638 29.031 30.9174 28.6786 30.9174 28.3112C30.9174 27.9438 30.7638 27.5914 30.4903 27.3316C30.2168 27.0717 29.8458 26.9258 29.4591 26.9258H26.7507M26.7507 29.6966V26.9258M26.7507 32.4674H25.5007M26.7507 32.4674V33.6549M26.7507 26.9258H25.5007M26.7507 26.9258V25.7383M29.2507 26.9258V25.7383M29.2507 32.4674V33.6549" stroke="white" stroke-width="1.5" stroke-linecap="round" stroke-linejoin="round"/>
</g>
<path d="M8.62878 44.3676L12.818 44.3676M12.818 44.3676L12.818 48.5568M12.818 44.3676L2.76382 54.4218" stroke="#D9FD08" stroke-width="1.97484" stroke-linecap="round" stroke-linejoin="round"/>
</g>
<rect x="1.07883" y="28.7305" width="38.712" height="38.7064" rx="19.3532" transform="rotate(-45 1.07883 28.7305)" stroke="#535353" stroke-width="0.789934"/>
<defs>
<clipPath id="clip0_2440_11080">
<rect x="0.520264" y="28.7305" width="39.5019" height="39.4963" rx="19.7482" transform="rotate(-45 0.520264 28.7305)" fill="white"/>
</clipPath>
<clipPath id="clip1_2440_11080">
<rect width="20" height="19" fill="white" transform="translate(18.0007 20.1973)"/>
</clipPath>
</defs>
</svg>
