<svg width="21" height="20" viewBox="0 0 21 20" fill="none" xmlns="http://www.w3.org/2000/svg">
<path fill-rule="evenodd" clip-rule="evenodd" d="M3.28461 5.26754C3.28461 4.62626 3.53935 4.01125 3.9928 3.5578C4.44625 3.10435 5.06126 2.84961 5.70254 2.84961H15.3743C16.0155 2.84961 16.6305 3.10435 17.084 3.5578C17.5374 4.01125 17.7922 4.62626 17.7922 5.26754V14.9393C17.7922 15.5805 17.5374 16.1955 17.084 16.649C16.6305 17.1024 16.0155 17.3572 15.3743 17.3572H5.70254C5.06126 17.3572 4.44625 17.1024 3.9928 16.649C3.53935 16.1955 3.28461 15.5805 3.28461 14.9393V5.26754ZM11.3444 6.87949C11.3444 6.66573 11.2595 6.46073 11.1083 6.30958C10.9572 6.15843 10.7522 6.07352 10.5384 6.07352C10.3246 6.07352 10.1196 6.15843 9.96848 6.30958C9.81733 6.46073 9.73242 6.66573 9.73242 6.87949V13.3273C9.73242 13.5411 9.81733 13.7461 9.96848 13.8972C10.1196 14.0484 10.3246 14.1333 10.5384 14.1333C10.7522 14.1333 10.9572 14.0484 11.1083 13.8972C11.2595 13.7461 11.3444 13.5411 11.3444 13.3273V6.87949ZM8.12047 9.29742C8.12047 9.08366 8.03555 8.87866 7.8844 8.72751C7.73325 8.57636 7.52825 8.49144 7.31449 8.49144C7.10073 8.49144 6.89573 8.57636 6.74458 8.72751C6.59343 8.87866 6.50851 9.08366 6.50851 9.29742V13.3273C6.50851 13.5411 6.59343 13.7461 6.74458 13.8972C6.89573 14.0484 7.10073 14.1333 7.31449 14.1333C7.52825 14.1333 7.73325 14.0484 7.8844 13.8972C8.03555 13.7461 8.12047 13.5411 8.12047 13.3273V9.29742ZM14.5683 11.7154C14.5683 11.5016 14.4834 11.2966 14.3322 11.1454C14.1811 10.9943 13.9761 10.9094 13.7623 10.9094C13.5485 10.9094 13.3435 10.9943 13.1924 11.1454C13.0412 11.2966 12.9563 11.5016 12.9563 11.7154V13.3273C12.9563 13.5411 13.0412 13.7461 13.1924 13.8972C13.3435 14.0484 13.5485 14.1333 13.7623 14.1333C13.9761 14.1333 14.1811 14.0484 14.3322 13.8972C14.4834 13.7461 14.5683 13.5411 14.5683 13.3273V11.7154Z" fill="white"/>
</svg>
