<svg width="57" height="57" viewBox="0 0 57 57" fill="none" xmlns="http://www.w3.org/2000/svg">
<g clip-path="url(#clip0_2812_860)">
<rect x="0.520233" y="28.5332" width="39.5019" height="39.4963" rx="19.7482" transform="rotate(-45 0.520233 28.5332)" fill="#E8D710"/>
<path d="M34.3914 30.1991L33.818 27.0773C33.5698 25.7286 33.4457 25.0543 32.9554 24.6555C32.465 24.2567 31.7599 24.2559 30.3504 24.2559H26.5628C25.1534 24.2559 24.4491 24.2559 23.9579 24.6555C23.4676 25.0543 23.3435 25.7286 23.0953 27.0773L22.5219 30.1991C22.0085 32.9983 21.7509 34.3984 22.5425 35.3166C23.3341 36.2365 24.7974 36.2365 27.7224 36.2365H29.1909C32.1159 36.2365 33.5792 36.2365 34.3708 35.3174C35.1624 34.3984 34.9057 32.9983 34.3914 30.2" stroke="#1A1A1A" stroke-width="1.1849" stroke-linecap="round" stroke-linejoin="round"/>
<path d="M28.4547 27.2502V32.8127M26.3153 31.1012L28.4547 33.2406L30.5941 31.1012M36.1566 27.6781C36.2888 27.6122 36.4087 27.5239 36.5108 27.4171C37.0123 26.8985 37.0123 26.0607 37.0123 24.3852C37.0123 22.7096 37.0123 21.8726 36.5108 21.3523C36.0094 20.832 35.2032 20.832 33.5893 20.832H23.3201C21.7062 20.832 20.9 20.832 20.3986 21.3523C19.8971 21.8726 19.8971 22.7104 19.8971 24.3852C19.8971 26.0599 19.8971 26.8977 20.3986 27.4171C20.5012 27.5244 20.6193 27.6114 20.7528 27.6781" stroke="#1A1A1A" stroke-width="1.1849" stroke-linecap="round" stroke-linejoin="round"/>
<g clip-path="url(#clip1_2812_860)">
<path d="M8.62876 44.1693L12.818 44.1693M12.818 44.1693L12.818 48.3586M12.818 44.1693L2.76379 54.2235" stroke="#E8D710" stroke-width="1.97484" stroke-linecap="round" stroke-linejoin="round"/>
</g>
</g>
<defs>
<clipPath id="clip0_2812_860">
<rect x="0.520233" y="28.5332" width="39.5019" height="39.4963" rx="19.7482" transform="rotate(-45 0.520233 28.5332)" fill="white"/>
</clipPath>
<clipPath id="clip1_2812_860">
<rect width="18.9584" height="18.9584" fill="white" transform="translate(-5.61609 49.1973) rotate(-45)"/>
</clipPath>
</defs>
</svg>
