<svg width="26" height="27" viewBox="0 0 26 27" fill="none" xmlns="http://www.w3.org/2000/svg">
<path d="M20.5129 15.6077L19.7871 11.6557C19.4729 9.9484 19.3159 9.09473 18.6951 8.5899C18.0744 8.08507 17.1817 8.08398 15.3974 8.08398H10.6026C8.81835 8.08398 7.92677 8.08398 7.30493 8.5899C6.68418 9.09473 6.5271 9.9484 6.21293 11.6557L5.4871 15.6077C4.8371 19.1513 4.51102 20.9237 5.5131 22.0861C6.51518 23.2507 8.36768 23.2507 12.0705 23.2507H13.9295C17.6324 23.2507 19.4849 23.2507 20.4869 22.0872C21.489 20.9237 21.164 19.1513 20.5129 15.6088" stroke="#E8D710" stroke-width="1.5" stroke-linecap="round" stroke-linejoin="round"/>
<path d="M13 11.875V18.9167M10.2917 16.75L13 19.4583L15.7084 16.75M22.75 12.4167C22.9174 12.3332 23.0692 12.2214 23.1985 12.0862C23.8334 11.4297 23.8334 10.3692 23.8334 8.248C23.8334 6.12683 23.8334 5.06733 23.1985 4.40867C22.5637 3.75 21.5432 3.75 19.5 3.75H6.50002C4.45685 3.75 3.43635 3.75 2.80152 4.40867C2.16669 5.06733 2.16669 6.12792 2.16669 8.248C2.16669 10.3681 2.16669 11.4287 2.80152 12.0862C2.93152 12.222 3.08102 12.3322 3.25002 12.4167" stroke="#E8D710" stroke-width="1.5" stroke-linecap="round" stroke-linejoin="round"/>
</svg>
