<svg width="24" height="21" viewBox="0 0 24 21" fill="none" xmlns="http://www.w3.org/2000/svg">
<path d="M19.5129 12.6068L18.787 8.65476C18.4729 6.94742 18.3158 6.09376 17.695 5.58892C17.0743 5.08409 16.1816 5.08301 14.3974 5.08301H9.60254C7.81829 5.08301 6.92671 5.08301 6.30487 5.58892C5.68412 6.09376 5.52704 6.94742 5.21287 8.65476L4.48704 12.6068C3.83704 16.1503 3.51096 17.9227 4.51304 19.0851C5.51512 20.2497 7.36762 20.2497 11.0705 20.2497H12.9295C16.6323 20.2497 18.4848 20.2497 19.4869 19.0862C20.489 17.9227 20.164 16.1503 19.5129 12.6078" stroke="#D9FD08" stroke-width="1.5" stroke-linecap="round" stroke-linejoin="round"/>
<path d="M12 8.875V15.9167M9.29163 13.75L12 16.4583L14.7083 13.75M21.75 9.41667C21.9174 9.33316 22.0691 9.22138 22.1985 9.08625C22.8333 8.42975 22.8333 7.36917 22.8333 5.248C22.8333 3.12683 22.8333 2.06733 22.1985 1.40867C21.5636 0.75 20.5431 0.75 18.5 0.75H5.49996C3.45679 0.75 2.43629 0.75 1.80146 1.40867C1.16663 2.06733 1.16663 3.12792 1.16663 5.248C1.16663 7.36808 1.16663 8.42867 1.80146 9.08625C1.93146 9.22203 2.08096 9.33217 2.24996 9.41667" stroke="#D9FD08" stroke-width="1.5" stroke-linecap="round" stroke-linejoin="round"/>
</svg>
