<svg width="57" height="56" viewBox="0 0 57 56" fill="none" xmlns="http://www.w3.org/2000/svg">
<g clip-path="url(#clip0_2440_11091)">
<rect x="0.520264" y="27.9268" width="39.5019" height="39.4963" rx="19.7482" transform="rotate(-45 0.520264 27.9268)" fill="#D9FD08"/>
<path d="M34.3914 29.5907L33.818 26.4689C33.5699 25.1202 33.4458 24.4459 32.9554 24.0471C32.4651 23.6483 31.7599 23.6475 30.3505 23.6475H26.5629C25.1534 23.6475 24.4491 23.6475 23.9579 24.0471C23.4676 24.4459 23.3435 25.1202 23.0953 26.4689L22.522 29.5907C22.0085 32.3899 21.7509 33.79 22.5425 34.7082C23.3341 35.6281 24.7974 35.6281 27.7224 35.6281H29.1909C32.1159 35.6281 33.5793 35.6281 34.3708 34.709C35.1624 33.79 34.9057 32.3899 34.3914 29.5916" stroke="#1A1A1A" stroke-width="1.1849" stroke-linecap="round" stroke-linejoin="round"/>
<path d="M28.4547 26.6428V32.2053M26.3153 30.4938L28.4547 32.6332L30.5941 30.4938M36.1566 27.0707C36.2888 27.0047 36.4087 26.9164 36.5109 26.8097C37.0123 26.2911 37.0123 25.4533 37.0123 23.7777C37.0123 22.1022 37.0123 21.2652 36.5109 20.7449C36.0094 20.2246 35.2033 20.2246 33.5893 20.2246H23.3201C21.7062 20.2246 20.9 20.2246 20.3986 20.7449C19.8971 21.2652 19.8971 22.103 19.8971 23.7777C19.8971 25.4525 19.8971 26.2903 20.3986 26.8097C20.5013 26.917 20.6194 27.004 20.7529 27.0707" stroke="#1A1A1A" stroke-width="1.1849" stroke-linecap="round" stroke-linejoin="round"/>
<path d="M8.62878 43.5638L12.818 43.5638M12.818 43.5638L12.818 47.7531M12.818 43.5638L2.76382 53.6181" stroke="#D9FD08" stroke-width="1.97484" stroke-linecap="round" stroke-linejoin="round"/>
</g>
<defs>
<clipPath id="clip0_2440_11091">
<rect x="0.520264" y="27.9268" width="39.5019" height="39.4963" rx="19.7482" transform="rotate(-45 0.520264 27.9268)" fill="white"/>
</clipPath>
</defs>
</svg>
